<svg width="16" height="17" viewBox="0 0 16 17" fill="none" xmlns="http://www.w3.org/2000/svg">
<path d="M15.3341 15.2593L11.8136 11.5439C12.834 10.2508 13.3428 8.59221 13.2342 6.91319C13.1256 5.23418 12.4079 3.66399 11.2305 2.52927C10.0531 1.39455 8.50651 0.782666 6.91257 0.820904C5.31863 0.859141 3.80001 1.54456 2.67264 2.73457C1.54526 3.92457 0.895919 5.52756 0.859694 7.21005C0.823469 8.89254 1.40315 10.525 2.47815 11.7678C3.55314 13.0107 5.04069 13.7682 6.63134 13.8829C8.22199 13.9975 9.79327 13.4604 11.0183 12.3833L14.5382 16.0994C14.5904 16.1546 14.6525 16.1984 14.7208 16.2282C14.789 16.2581 14.8622 16.2734 14.9361 16.2734C15.01 16.2734 15.0832 16.2581 15.1515 16.2282C15.2198 16.1984 15.2818 16.1546 15.3341 16.0994C15.3864 16.0443 15.4278 15.9788 15.4561 15.9067C15.4844 15.8346 15.4989 15.7574 15.4989 15.6794C15.4989 15.6014 15.4844 15.5241 15.4561 15.452C15.4278 15.3799 15.3864 15.3145 15.3341 15.2593ZM1.99863 7.36687C1.99863 6.30997 2.29555 5.27681 2.85182 4.39804C3.40809 3.51926 4.19875 2.83434 5.1238 2.42989C6.04885 2.02543 7.06675 1.91961 8.04878 2.1258C9.03081 2.33199 9.93286 2.84093 10.6409 3.58827C11.3489 4.3356 11.831 5.28777 12.0264 6.32435C12.2217 7.36094 12.1214 8.43539 11.7383 9.41183C11.3551 10.3883 10.7062 11.2229 9.87371 11.81C9.04118 12.3972 8.0624 12.7106 7.06113 12.7106C5.71893 12.709 4.43213 12.1455 3.48305 11.1437C2.53397 10.1419 2.00012 8.78364 1.99863 7.36687Z" fill="black"/>
</svg>
