<svg width="16" height="16" viewBox="0 0 16 16" fill="none" xmlns="http://www.w3.org/2000/svg">
<path d="M7.19226 11.2913H8.77559V6.79132H7.19226V11.2913ZM7.98393 5.29132C8.20823 5.29132 8.39639 5.21932 8.54839 5.07532C8.70039 4.93132 8.77612 4.75332 8.77559 4.54132C8.77559 4.32882 8.69959 4.15057 8.54759 4.00657C8.39559 3.86257 8.20771 3.79082 7.98393 3.79132C7.75962 3.79132 7.57147 3.86332 7.41947 4.00732C7.26747 4.15132 7.19173 4.32932 7.19226 4.54132C7.19226 4.75382 7.26826 4.93207 7.42026 5.07607C7.57226 5.22007 7.76015 5.29182 7.98393 5.29132ZM7.98393 15.0413C6.88879 15.0413 5.85962 14.8443 4.89643 14.4503C3.93323 14.0563 3.09539 13.5221 2.38289 12.8476C1.67039 12.1726 1.10646 11.3788 0.691094 10.4663C0.275733 9.55382 0.0677885 8.57882 0.0672607 7.54132C0.0672607 6.50382 0.275205 5.52882 0.691094 4.61632C1.10698 3.70382 1.67091 2.91007 2.38289 2.23507C3.09539 1.56007 3.93323 1.02582 4.89643 0.632321C5.85962 0.238821 6.88879 0.0418208 7.98393 0.0413208C9.07907 0.0413208 10.1082 0.238321 11.0714 0.632321C12.0346 1.02632 12.8725 1.56057 13.585 2.23507C14.2975 2.91007 14.8617 3.70382 15.2776 4.61632C15.6934 5.52882 15.9011 6.50382 15.9006 7.54132C15.9006 8.57882 15.6926 9.55382 15.2768 10.4663C14.8609 11.3788 14.2969 12.1726 13.585 12.8476C12.8725 13.5226 12.0346 14.0571 11.0714 14.4511C10.1082 14.8451 9.07907 15.0418 7.98393 15.0413ZM7.98393 13.5413C9.75198 13.5413 11.2496 12.9601 12.4766 11.7976C13.7037 10.6351 14.3173 9.21632 14.3173 7.54132C14.3173 5.86632 13.7037 4.44757 12.4766 3.28507C11.2496 2.12257 9.75198 1.54132 7.98393 1.54132C6.21587 1.54132 4.7183 2.12257 3.49122 3.28507C2.26414 4.44757 1.65059 5.86632 1.65059 7.54132C1.65059 9.21632 2.26414 10.6351 3.49122 11.7976C4.7183 12.9601 6.21587 13.5413 7.98393 13.5413Z" fill="#FFB800"/>
</svg>
