<svg width="103" height="26" viewBox="0 0 103 26" fill="none" xmlns="http://www.w3.org/2000/svg">
<path d="M21.012 25.964H17.448V6.488L19.68 4.292H16.764L11.976 13.544H9.384L4.776 4.292H1.896L4.128 6.488V25.964H0.564V1.124H6.936L10.644 9.296H11.076L14.856 1.124H21.012V25.964ZM40.1865 22.868L37.0905 26H30.4305L27.3345 22.868V10.448L30.4305 7.316H37.0905L40.1865 10.448V22.868ZM36.6585 22.868V10.448H30.8985V22.868H36.6585ZM58.0692 21.032L53.0652 26H50.1492L45.1812 21.032V6.452L48.7092 10.016V20.456L51.6252 23.264L54.5052 20.456V10.016L58.0692 6.452V21.032ZM66.9773 4.256H63.4133V0.692H66.9773V4.256ZM66.9773 26H63.4133V10.052L66.9773 6.452V26ZM85.6787 26H75.9227L72.8267 22.868V10.448L75.9227 7.316H82.5827L85.6787 10.448V16.676L82.5827 19.772H76.8227L79.9907 16.676H82.1507V10.448H76.3907V22.868H85.6787V26ZM102.034 26H98.4697V19.988L95.5897 17.144L92.7097 19.988V26H89.1457V19.592L93.6457 15.164L89.1457 10.736V6.272L95.5897 12.788L102.034 6.272V10.736L97.5337 15.164L102.034 19.556V26Z" fill="#FFB800"/>
</svg>
